<svg width="100" height="22" viewBox="0 0 100 22" fill="none" xmlns="http://www.w3.org/2000/svg">
<path d="M0.691162 0.210022H4.47116V21H0.691162V0.210022Z" fill="white"/>
<path d="M23.9409 0.210022V3.48002H17.5509V21H13.7409V3.48002H7.35093V0.210022H23.9409Z" fill="white"/>
<path d="M40.834 21C40.154 19.86 39.394 18.64 38.554 17.34C37.714 16.02 36.844 14.7 35.944 13.38C35.044 12.04 34.124 10.75 33.184 9.51002C32.264 8.25002 31.384 7.12002 30.544 6.12002V21H26.824V0.210022H29.914C30.714 1.05002 31.574 2.05002 32.494 3.21002C33.414 4.35002 34.334 5.54002 35.254 6.78002C36.194 8.02002 37.094 9.27002 37.954 10.53C38.834 11.77 39.614 12.93 40.294 14.01V0.210022H44.044V21H40.834Z" fill="white"/>
<path d="M47.981 13.23C47.981 11.85 48.181 10.64 48.581 9.60002C49.001 8.56002 49.551 7.70002 50.231 7.02002C50.911 6.32002 51.691 5.80002 52.571 5.46002C53.451 5.10002 54.351 4.92002 55.271 4.92002C57.431 4.92002 59.111 5.59002 60.311 6.93002C61.531 8.27002 62.141 10.27 62.141 12.93C62.141 13.13 62.131 13.36 62.111 13.62C62.111 13.86 62.101 14.08 62.081 14.28H51.731C51.831 15.54 52.271 16.52 53.051 17.22C53.851 17.9 55.001 18.24 56.501 18.24C57.381 18.24 58.181 18.16 58.901 18C59.641 17.84 60.221 17.67 60.641 17.49L61.121 20.46C60.921 20.56 60.641 20.67 60.281 20.79C59.941 20.89 59.541 20.98 59.081 21.06C58.641 21.16 58.161 21.24 57.641 21.3C57.121 21.36 56.591 21.39 56.051 21.39C54.671 21.39 53.471 21.19 52.451 20.79C51.431 20.37 50.591 19.8 49.931 19.08C49.271 18.34 48.781 17.48 48.461 16.5C48.141 15.5 47.981 14.41 47.981 13.23ZM58.511 11.61C58.511 11.11 58.441 10.64 58.301 10.2C58.161 9.74002 57.951 9.35002 57.671 9.03002C57.411 8.69002 57.081 8.43002 56.681 8.25002C56.301 8.05002 55.841 7.95002 55.301 7.95002C54.741 7.95002 54.251 8.06002 53.831 8.28002C53.411 8.48002 53.051 8.75002 52.751 9.09002C52.471 9.43002 52.251 9.82002 52.091 10.26C51.931 10.7 51.821 11.15 51.761 11.61H58.511Z" fill="white"/>
<path d="M75.3497 11.13C74.8897 12.89 74.3897 14.61 73.8497 16.29C73.3297 17.95 72.8097 19.52 72.2897 21H69.3197C68.9197 20.08 68.4997 19.03 68.0597 17.85C67.6197 16.67 67.1797 15.41 66.7397 14.07C66.2997 12.73 65.8597 11.32 65.4197 9.84002C64.9797 8.36002 64.5497 6.85002 64.1297 5.31002H67.9697C68.1497 6.15002 68.3597 7.06002 68.5997 8.04002C68.8397 9.00002 69.0897 9.99002 69.3497 11.01C69.6097 12.01 69.8797 12.99 70.1597 13.95C70.4397 14.91 70.7197 15.79 70.9997 16.59C71.2997 15.67 71.5897 14.72 71.8697 13.74C72.1697 12.76 72.4497 11.78 72.7097 10.8C72.9697 9.82002 73.2097 8.87002 73.4297 7.95002C73.6697 7.01002 73.8797 6.13002 74.0597 5.31002H76.8497C77.0297 6.13002 77.2297 7.01002 77.4497 7.95002C77.6697 8.87002 77.8997 9.82002 78.1397 10.8C78.3997 11.78 78.6697 12.76 78.9497 13.74C79.2497 14.72 79.5497 15.67 79.8497 16.59C80.1097 15.79 80.3797 14.91 80.6597 13.95C80.9397 12.99 81.2097 12.01 81.4697 11.01C81.7497 9.99002 82.0097 9.00002 82.2497 8.04002C82.4897 7.06002 82.6997 6.15002 82.8797 5.31002H86.6297C86.2097 6.85002 85.7797 8.36002 85.3397 9.84002C84.8997 11.32 84.4597 12.73 84.0197 14.07C83.5797 15.41 83.1397 16.67 82.6997 17.85C82.2597 19.03 81.8297 20.08 81.4097 21H78.4697C77.9497 19.52 77.4097 17.95 76.8497 16.29C76.3097 14.61 75.8097 12.89 75.3497 11.13Z" fill="white"/>
<path d="M93.3279 18.39C94.2879 18.39 94.9879 18.28 95.4279 18.06C95.8679 17.82 96.0879 17.42 96.0879 16.86C96.0879 16.34 95.8479 15.91 95.3679 15.57C94.9079 15.23 94.1379 14.86 93.0579 14.46C92.3979 14.22 91.7879 13.97 91.2279 13.71C90.6879 13.43 90.2179 13.11 89.8179 12.75C89.4179 12.39 89.0979 11.96 88.8579 11.46C88.6379 10.94 88.5279 10.31 88.5279 9.57002C88.5279 8.13002 89.0579 7.00002 90.1179 6.18002C91.1779 5.34002 92.6179 4.92002 94.4379 4.92002C95.3579 4.92002 96.2379 5.01002 97.0779 5.19002C97.9179 5.35002 98.5479 5.51002 98.9679 5.67002L98.3079 8.61002C97.9079 8.43002 97.3979 8.27002 96.7779 8.13002C96.1579 7.97002 95.4379 7.89002 94.6179 7.89002C93.8779 7.89002 93.2779 8.02002 92.8179 8.28002C92.3579 8.52002 92.1279 8.90002 92.1279 9.42002C92.1279 9.68002 92.1679 9.91002 92.2479 10.11C92.3479 10.31 92.5079 10.5 92.7279 10.68C92.9479 10.84 93.2379 11.01 93.5979 11.19C93.9579 11.35 94.3979 11.52 94.9179 11.7C95.7779 12.02 96.5079 12.34 97.1079 12.66C97.7079 12.96 98.1979 13.31 98.5779 13.71C98.9779 14.09 99.2679 14.53 99.4479 15.03C99.6279 15.53 99.7179 16.13 99.7179 16.83C99.7179 18.33 99.1579 19.47 98.0379 20.25C96.9379 21.01 95.3579 21.39 93.2979 21.39C91.9179 21.39 90.8079 21.27 89.9679 21.03C89.1279 20.81 88.5379 20.63 88.1979 20.49L88.8279 17.46C89.3679 17.68 90.0079 17.89 90.7479 18.09C91.5079 18.29 92.3679 18.39 93.3279 18.39Z" fill="white"/>
</svg>
